<svg xmlns="http://www.w3.org/2000/svg" version="1.1"  width="1000" height="1000" viewBox="0 0 1000 1000"><rect width="1000" height="1000" fill="#ffffff"></rect><g transform="matrix(0.7,0,0,0.7,149.5757623072314,418.71994044671504)"><svg viewBox="0 0 396 92" data-background-color="#ffffff" preserveAspectRatio="xMidYMid meet" height="232" width="1000" xmlns="http://www.w3.org/2000/svg" xmlns:xlink="http://www.w3.org/1999/xlink"><g id="tight-bounds" transform="matrix(1,0,0,1,0.23999732333766133,0.04535471160573934)"><svg viewBox="0 0 395.52 91.90929135426734" height="91.90929135426734" width="395.52"><g><svg viewBox="0 0 535.7749959704938 124.50116354415333" height="91.90929135426734" width="395.52"><g><rect width="5.389559135190095" height="90.53811097096532" x="120.75664328768573" y="16.981526286594004" fill="#000000" opacity="1" stroke-width="0" stroke="transparent" fill-opacity="1" class="rect-o-0" data-fill-palette-color="primary" rx="1%" id="o-0" data-palette-color="#ffffff"></rect></g><g transform="matrix(1,0,0,1,140.2549959704939,17.206745468113816)"><svg viewBox="0 0 395.52 90.0876726079257" height="90.0876726079257" width="395.52"><g id="textblocktransform"><svg viewBox="0 0 395.52 90.0876726079257" height="90.0876726079257" width="395.52" id="textblock"><g><svg viewBox="0 0 395.52 59.76377754459601" height="59.76377754459601" width="395.52"><g transform="matrix(1,0,0,1,0,0)"><svg width="395.52" viewBox="4.349999904632568 -35.5 238.22999572753906 36" height="59.76377754459601" data-palette-color="#ffffff"><g class="undefined-text-0" data-fill-palette-color="primary" id="text-0"><path d="M8.15 0L5.5 0Q4.95 0 4.65-0.33 4.35-0.65 4.35-1.15L4.35-1.15 4.35-33.85Q4.35-34.35 4.65-34.68 4.95-35 5.5-35L5.5-35 8.15-35Q8.7-35 9-34.68 9.3-34.35 9.3-33.85L9.3-33.85 9.3-1.15Q9.3-0.65 9-0.33 8.7 0 8.15 0L8.15 0ZM21.7 0L19.15 0Q18.6 0 18.3-0.33 18-0.65 18-1.15L18-1.15 18-33.8Q18-34.35 18.3-34.68 18.6-35 19.15-35L19.15-35 31.35-35Q37-35 40.3-32.35 43.6-29.7 43.6-24.5L43.6-24.5Q43.6-20.65 41.67-18.23 39.75-15.8 36.45-14.85L36.45-14.85 44.15-1.55Q44.3-1.25 44.3-1L44.3-1Q44.3-0.6 43.97-0.3 43.65 0 43.25 0L43.25 0 40.85 0Q40 0 39.6-0.45 39.2-0.9 38.9-1.35L38.9-1.35 31.65-14.05 22.9-14.05 22.9-1.15Q22.9-0.65 22.57-0.33 22.25 0 21.7 0L21.7 0ZM22.9-30.8L22.9-18.3 31.15-18.3Q34.9-18.3 36.75-19.88 38.6-21.45 38.6-24.55L38.6-24.55Q38.6-27.6 36.77-29.2 34.95-30.8 31.15-30.8L31.15-30.8 22.9-30.8ZM63.34 0.5L63.34 0.5Q59.05 0.5 56-0.98 52.95-2.45 51.3-5.53 49.65-8.6 49.45-13.25L49.45-13.25Q49.4-15.45 49.4-17.48 49.4-19.5 49.45-21.7L49.45-21.7Q49.65-26.3 51.37-29.38 53.1-32.45 56.17-33.98 59.25-35.5 63.34-35.5L63.34-35.5Q67.4-35.5 70.47-33.98 73.55-32.45 75.3-29.38 77.05-26.3 77.2-21.7L77.2-21.7Q77.3-19.5 77.3-17.48 77.3-15.45 77.2-13.25L77.2-13.25Q77.05-8.6 75.37-5.53 73.7-2.45 70.65-0.98 67.59 0.5 63.34 0.5ZM63.34-3.75L63.34-3.75Q67.15-3.75 69.57-6.05 72-8.35 72.2-13.5L72.2-13.5Q72.3-15.75 72.3-17.53 72.3-19.3 72.2-21.5L72.2-21.5Q72.09-24.95 70.92-27.1 69.75-29.25 67.8-30.25 65.84-31.25 63.34-31.25L63.34-31.25Q60.85-31.25 58.9-30.25 56.95-29.25 55.77-27.1 54.6-24.95 54.45-21.5L54.45-21.5Q54.4-19.3 54.4-17.53 54.4-15.75 54.45-13.5L54.45-13.5Q54.65-8.35 57.1-6.05 59.55-3.75 63.34-3.75ZM88.14 0L85.74 0Q85.19 0 84.89-0.33 84.59-0.65 84.59-1.15L84.59-1.15 84.59-33.8Q84.59-34.35 84.89-34.68 85.19-35 85.74-35L85.74-35 88.04-35Q88.64-35 88.94-34.73 89.24-34.45 89.29-34.3L89.29-34.3 105.89-8.8 105.89-33.8Q105.89-34.35 106.19-34.68 106.49-35 107.04-35L107.04-35 109.44-35Q109.99-35 110.32-34.68 110.64-34.35 110.64-33.8L110.64-33.8 110.64-1.2Q110.64-0.7 110.32-0.35 109.99 0 109.49 0L109.49 0 107.09 0Q106.54 0 106.27-0.3 105.99-0.6 105.89-0.7L105.89-0.7 89.34-25.95 89.34-1.15Q89.34-0.65 89.02-0.33 88.69 0 88.14 0L88.14 0ZM131.94 0.5L131.94 0.5Q127.34 0.5 124.32-1.2 121.29-2.9 119.74-5.95 118.19-9 118.04-13.05L118.04-13.05Q117.99-15.1 117.99-17.45 117.99-19.8 118.04-21.95L118.04-21.95Q118.19-26 119.74-29.05 121.29-32.1 124.32-33.8 127.34-35.5 131.94-35.5L131.94-35.5Q135.39-35.5 137.99-34.55 140.59-33.6 142.31-32 144.04-30.4 144.94-28.43 145.84-26.45 145.94-24.35L145.94-24.35Q145.99-23.9 145.67-23.6 145.34-23.3 144.89-23.3L144.89-23.3 142.14-23.3Q141.69-23.3 141.37-23.55 141.04-23.8 140.89-24.45L140.89-24.45Q140.04-28.35 137.72-29.8 135.39-31.25 131.94-31.25L131.94-31.25Q127.89-31.25 125.54-28.98 123.19-26.7 123.04-21.7L123.04-21.7Q122.89-17.6 123.04-13.3L123.04-13.3Q123.19-8.3 125.54-6.03 127.89-3.75 131.94-3.75L131.94-3.75Q135.39-3.75 137.72-5.2 140.04-6.65 140.89-10.55L140.89-10.55Q141.04-11.2 141.37-11.45 141.69-11.7 142.14-11.7L142.14-11.7 144.89-11.7Q145.34-11.7 145.67-11.43 145.99-11.15 145.94-10.7L145.94-10.7Q145.84-8.6 144.94-6.6 144.04-4.6 142.31-3 140.59-1.4 137.99-0.45 135.39 0.5 131.94 0.5ZM165.24 0.5L165.24 0.5Q160.94 0.5 157.89-0.98 154.84-2.45 153.19-5.53 151.54-8.6 151.34-13.25L151.34-13.25Q151.29-15.45 151.29-17.48 151.29-19.5 151.34-21.7L151.34-21.7Q151.54-26.3 153.26-29.38 154.99-32.45 158.06-33.98 161.14-35.5 165.24-35.5L165.24-35.5Q169.29-35.5 172.36-33.98 175.44-32.45 177.19-29.38 178.94-26.3 179.09-21.7L179.09-21.7Q179.19-19.5 179.19-17.48 179.19-15.45 179.09-13.25L179.09-13.25Q178.94-8.6 177.26-5.53 175.59-2.45 172.54-0.98 169.49 0.5 165.24 0.5ZM165.24-3.75L165.24-3.75Q169.04-3.75 171.46-6.05 173.89-8.35 174.09-13.5L174.09-13.5Q174.19-15.75 174.19-17.53 174.19-19.3 174.09-21.5L174.09-21.5Q173.99-24.95 172.81-27.1 171.64-29.25 169.69-30.25 167.74-31.25 165.24-31.25L165.24-31.25Q162.74-31.25 160.79-30.25 158.84-29.25 157.66-27.1 156.49-24.95 156.34-21.5L156.34-21.5Q156.29-19.3 156.29-17.53 156.29-15.75 156.34-13.5L156.34-13.5Q156.54-8.35 158.99-6.05 161.44-3.75 165.24-3.75ZM190.19 0L187.64 0Q187.09 0 186.79-0.33 186.49-0.65 186.49-1.15L186.49-1.15 186.49-33.8Q186.49-34.35 186.79-34.68 187.09-35 187.64-35L187.64-35 199.84-35Q205.49-35 208.79-32.35 212.09-29.7 212.09-24.5L212.09-24.5Q212.09-20.65 210.16-18.23 208.24-15.8 204.94-14.85L204.94-14.85 212.64-1.55Q212.79-1.25 212.79-1L212.79-1Q212.79-0.6 212.46-0.3 212.14 0 211.74 0L211.74 0 209.34 0Q208.49 0 208.09-0.45 207.69-0.9 207.39-1.35L207.39-1.35 200.14-14.05 191.39-14.05 191.39-1.15Q191.39-0.65 191.06-0.33 190.74 0 190.19 0L190.19 0ZM191.39-30.8L191.39-18.3 199.64-18.3Q203.39-18.3 205.24-19.88 207.09-21.45 207.09-24.55L207.09-24.55Q207.09-27.6 205.26-29.2 203.44-30.8 199.64-30.8L199.64-30.8 191.39-30.8ZM241.43 0L220.38 0Q219.83 0 219.53-0.33 219.23-0.65 219.23-1.15L219.23-1.15 219.23-33.8Q219.23-34.35 219.53-34.68 219.83-35 220.38-35L220.38-35 241.03-35Q241.58-35 241.88-34.68 242.18-34.35 242.18-33.8L242.18-33.8 242.18-31.9Q242.18-31.35 241.88-31.05 241.58-30.75 241.03-30.75L241.03-30.75 224.03-30.75 224.03-19.8 239.93-19.8Q240.48-19.8 240.78-19.48 241.08-19.15 241.08-18.6L241.08-18.6 241.08-16.75Q241.08-16.25 240.78-15.93 240.48-15.6 239.93-15.6L239.93-15.6 224.03-15.6 224.03-4.25 241.43-4.25Q241.98-4.25 242.28-3.95 242.58-3.65 242.58-3.1L242.58-3.1 242.58-1.15Q242.58-0.65 242.28-0.33 241.98 0 241.43 0L241.43 0Z" fill="#000000" data-fill-palette-color="primary"></path></g></svg></g></svg></g><g transform="matrix(1,0,0,1,0,73.87257109221406)"><svg viewBox="0 0 232.209792 16.215101515711645" height="16.215101515711645" width="232.209792"><g transform="matrix(1,0,0,1,0,0)"><svg width="232.209792" viewBox="5 -33.25 486.8500061035156 34" height="16.215101515711645" data-palette-color="#ff0404"><path d="M5 0L5-32.5 12.55-32.5Q16.45-32.5 18.48-30.65 20.5-28.8 20.5-25.5L20.5-25.5 20.5-22.5Q20.5-18.25 16.95-17.05L16.95-17.05Q21-15.95 21-11.5L21-11.5 21-7Q21-3.65 19-1.83 17 0 13.05 0L13.05 0 5 0ZM17.5-7L17.5-7 17.5-11.5Q17.5-13.1 16.3-14.43 15.1-15.75 13.05-15.75L13.05-15.75 8.5-15.75 8.5-3 13.05-3Q15.15-3 16.32-4.17 17.5-5.35 17.5-7ZM17-22.5L17-22.5 17-25.5Q17-27.1 15.83-28.3 14.65-29.5 12.55-29.5L12.55-29.5 8.5-29.5 8.5-18.25 12.55-18.25Q14.65-18.25 15.83-19.55 17-20.85 17-22.5ZM29.75-6.25L29.75-6.25 29.75-32.5 33.25-32.5 33.25-6.25Q33.25-4.35 34.07-3.3 34.9-2.25 37.1-2.25 39.3-2.25 41.15-3.95 43-5.65 43-7.25L43-7.25 43-32.5 46.5-32.5 46.5 0 45 0 43.7-3.2Q42.6-1.4 40.87-0.33 39.15 0.75 37.1 0.75L37.1 0.75Q29.75 0.75 29.75-6.25ZM60-32.5L60 0 56.5 0 56.5-32.5 60-32.5ZM82.64 0L69.99 0 69.99-32.5 73.49-32.5 73.49-3 82.64-3 82.64 0ZM96.69 0L96.69 0 88.64 0 88.64-32.5 96.69-32.5Q100.59-32.5 102.62-30.65 104.64-28.8 104.64-25.5L104.64-25.5 104.64-7Q104.64-3.65 102.64-1.83 100.64 0 96.69 0ZM101.14-7L101.14-7 101.14-25.5Q101.14-27.4 99.99-28.45 98.84-29.5 96.69-29.5L96.69-29.5 92.14-29.5 92.14-3 96.69-3Q101.14-3 101.14-7ZM133.94-9.2L133.94 0 130.44 0 130.44-9.2Q123.64-9.95 123.64-16.1L123.64-16.1 123.64-32.5 127.14-32.5 127.14-16.1Q127.14-12.1 132.14-12.1 137.14-12.1 137.14-16.1L137.14-16.1 137.14-32.5 140.64-32.5 140.64-16.1Q140.64-9.95 133.94-9.2L133.94-9.2ZM165.13-26.25L165.13-26.25 165.13-6.25Q165.13-2.9 163.01-1.07 160.88 0.75 156.66 0.75 152.43 0.75 150.28-1.07 148.13-2.9 148.13-6.25L148.13-6.25 148.13-26.25Q148.13-29.6 150.26-31.43 152.38-33.25 156.61-33.25 160.83-33.25 162.98-31.43 165.13-29.6 165.13-26.25ZM161.63-6.25L161.63-6.25 161.63-26.25Q161.63-30.25 156.63-30.25 151.63-30.25 151.63-26.25L151.63-26.25 151.63-6.25Q151.63-2.25 156.63-2.25 161.63-2.25 161.63-6.25ZM173.88-6.25L173.88-6.25 173.88-32.5 177.38-32.5 177.38-6.25Q177.38-4.35 178.21-3.3 179.03-2.25 181.23-2.25 183.43-2.25 185.28-3.95 187.13-5.65 187.13-7.25L187.13-7.25 187.13-32.5 190.63-32.5 190.63 0 189.13 0 187.83-3.2Q186.73-1.4 185.01-0.33 183.28 0.75 181.23 0.75L181.23 0.75Q173.88 0.75 173.88-6.25ZM204.13-22.85L204.13 0 200.63 0 200.63-32.5 202.13-32.5 203.58-28.8Q205.18-33.25 208.68-33.25L208.68-33.25Q214.63-33.25 214.63-26.75L214.63-26.75 214.63-23.5 211.28-23.5 211.28-26.95Q211.28-30.25 208.53-30.25L208.53-30.25Q206.88-30.25 205.5-28.35 204.13-26.45 204.13-22.85L204.13-22.85ZM235.12-10L235.12 0 231.62 0 231.62-32.5 239.17-32.5Q243.07-32.5 245.1-30.65 247.12-28.8 247.12-25.5L247.12-25.5 247.12-17Q247.12-13.65 245.12-11.83 243.12-10 239.17-10L239.17-10 235.12-10ZM243.62-17L243.62-17 243.62-25.5Q243.62-27.4 242.47-28.45 241.32-29.5 239.17-29.5L239.17-29.5 235.12-29.5 235.12-13 239.17-13Q243.62-13 243.62-17ZM267.37-6.25L267.37-6.25 267.37-9 270.87-9 270.87-6.25Q270.87-2.9 268.82-1.07 266.77 0.75 262.67 0.75 258.57 0.75 256.47-1.07 254.37-2.9 254.37-6.25L254.37-6.25 254.37-26.25Q254.37-29.6 256.42-31.43 258.47-33.25 262.57-33.25 266.67-33.25 268.77-31.43 270.87-29.6 270.87-26.25L270.87-26.25 270.87-15.25 257.87-15.25 257.87-6.25Q257.87-2.25 262.62-2.25 267.37-2.25 267.37-6.25ZM257.87-26.25L257.87-26.25 257.87-18.25 267.37-18.25 267.37-26.25Q267.37-30.25 262.62-30.25 257.87-30.25 257.87-26.25ZM283.62-22.85L283.62 0 280.12 0 280.12-32.5 281.62-32.5 283.07-28.8Q284.67-33.25 288.17-33.25L288.17-33.25Q294.12-33.25 294.12-26.75L294.12-26.75 294.12-23.5 290.77-23.5 290.77-26.95Q290.77-30.25 288.02-30.25L288.02-30.25Q286.37-30.25 284.99-28.35 283.62-26.45 283.62-22.85L283.62-22.85ZM303.62-15L303.62 0 300.12 0 300.12-32.5 313.87-32.5 313.87-29.5 303.62-29.5 303.62-18 311.87-18 311.87-15 303.62-15ZM333.11-6.25L333.11-6.25 333.11-9 336.61-9 336.61-6.25Q336.61-2.9 334.56-1.07 332.51 0.75 328.41 0.75 324.31 0.75 322.21-1.07 320.11-2.9 320.11-6.25L320.11-6.25 320.11-26.25Q320.11-29.6 322.16-31.43 324.21-33.25 328.31-33.25 332.41-33.25 334.51-31.43 336.61-29.6 336.61-26.25L336.61-26.25 336.61-15.25 323.61-15.25 323.61-6.25Q323.61-2.25 328.36-2.25 333.11-2.25 333.11-6.25ZM323.61-26.25L323.61-26.25 323.61-18.25 333.11-18.25 333.11-26.25Q333.11-30.25 328.36-30.25 323.61-30.25 323.61-26.25ZM358.11-6.25L358.11-6.25 358.11-9 361.61-9 361.61-6.25Q361.61-2.9 359.56-1.07 357.51 0.75 353.41 0.75 349.31 0.75 347.21-1.07 345.11-2.9 345.11-6.25L345.11-6.25 345.11-26.25Q345.11-29.6 347.16-31.43 349.21-33.25 353.31-33.25 357.41-33.25 359.51-31.43 361.61-29.6 361.61-26.25L361.61-26.25 361.61-21.5 358.11-21.5 358.11-26.25Q358.11-30.25 353.36-30.25 348.61-30.25 348.61-26.25L348.61-26.25 348.61-6.25Q348.61-2.25 353.36-2.25 358.11-2.25 358.11-6.25ZM369.61-5.75L369.61-32.5 380.61-32.5 380.61-29.5 373.11-29.5 373.11-5.55Q373.11-4.15 373.83-3.2 374.56-2.25 375.88-2.25 377.21-2.25 377.91-3.18 378.61-4.1 378.61-5.55L378.61-5.55 378.61-11.5 382.11-11.5 382.11-5.75Q382.11-2.6 380.43-0.93 378.76 0.75 375.91 0.75 373.06 0.75 371.33-0.93 369.61-2.6 369.61-5.75L369.61-5.75ZM400.6 0L400.6-32.5 408.15-32.5Q412.05-32.5 414.08-30.65 416.1-28.8 416.1-25.5L416.1-25.5 416.1-22.5Q416.1-18.25 412.55-17.05L412.55-17.05Q416.6-15.95 416.6-11.5L416.6-11.5 416.6-7Q416.6-3.65 414.6-1.83 412.6 0 408.65 0L408.65 0 400.6 0ZM413.1-7L413.1-7 413.1-11.5Q413.1-13.4 411.95-14.58 410.8-15.75 408.65-15.75L408.65-15.75 404.1-15.75 404.1-3 408.65-3Q413.1-3 413.1-7ZM412.6-22.5L412.6-22.5 412.6-25.5Q412.6-27.4 411.45-28.45 410.3-29.5 408.15-29.5L408.15-29.5 404.1-29.5 404.1-18.25 408.15-18.25Q410.35-18.25 411.48-19.4 412.6-20.55 412.6-22.5ZM442.1-26.25L442.1-26.25 442.1-6.25Q442.1-2.9 439.98-1.07 437.85 0.75 433.63 0.75 429.4 0.75 427.25-1.07 425.1-2.9 425.1-6.25L425.1-6.25 425.1-26.25Q425.1-29.6 427.23-31.43 429.35-33.25 433.58-33.25 437.8-33.25 439.95-31.43 442.1-29.6 442.1-26.25ZM438.6-6.25L438.6-6.25 438.6-26.25Q438.6-30.25 433.6-30.25 428.6-30.25 428.6-26.25L428.6-26.25 428.6-6.25Q428.6-2.25 433.6-2.25 438.6-2.25 438.6-6.25ZM459.4 0L459.4 0 451.35 0 451.35-32.5 459.4-32.5Q463.3-32.5 465.32-30.65 467.35-28.8 467.35-25.5L467.35-25.5 467.35-7Q467.35-3.65 465.35-1.83 463.35 0 459.4 0ZM463.85-7L463.85-7 463.85-25.5Q463.85-27.4 462.7-28.45 461.55-29.5 459.4-29.5L459.4-29.5 454.85-29.5 454.85-3 459.4-3Q463.85-3 463.85-7ZM485.15-9.2L485.15 0 481.65 0 481.65-9.2Q474.85-9.95 474.85-16.1L474.85-16.1 474.85-32.5 478.35-32.5 478.35-16.1Q478.35-12.1 483.35-12.1 488.35-12.1 488.35-16.1L488.35-16.1 488.35-32.5 491.85-32.5 491.85-16.1Q491.85-9.95 485.15-9.2L485.15-9.2Z" opacity="1" transform="matrix(1,0,0,1,0,0)" fill="#000000" class="undefined-text-1" data-fill-palette-color="secondary" id="text-1"></path></svg></g></svg></g></svg></g></svg></g><g><svg viewBox="0 0 106.64784974006768 124.50116354415333" height="124.50116354415333" width="106.64784974006768"><g><svg xmlns="http://www.w3.org/2000/svg" xmlns:xlink="http://www.w3.org/1999/xlink" version="1.1" x="0" y="0" viewBox="9.868020057678223 3.423774242401123 80.78097534179688 94.30406188964844" enable-background="new 0 0 100 100" xml:space="preserve" height="124.50116354415333" width="106.64784974006768" class="icon-icon-0" data-fill-palette-color="accent" id="icon-0"><path d="M82.423 52.607c-6.628 0.445-9.798 6.401-9.798 6.401s3.105 1.262 4.45 3.554c1.584 2.699 0.992 6.82 0.992 6.82s-1.84-5.427-4.995-7.557c-3.585-2.42-7.917-2.955-10.629-3.105-6.916-0.385-12.421 0.915-15.849 2.882-6.532 3.746-11.143 12.199-11.143 12.199s-0.384-2.786 0.384-3.938c2.113-3.17 5.283-6.82 5.283-6.82s-0.641-8.552-1.986-10.569c-1.345-2.017-7.685-10.213-7.685-12.807 0-2.594 1.447-16.447 0.192-17.13-6.964-3.794-2.306-4.61-2.306-4.61s3.458 5.028 4.419 5.22c0.96 0.192 3.938-1.057 4.995-1.152 1.057-0.096 5.732 1.409 6.404 0.641s1.89-1.665 2.178-1.665 0.543-1.921-0.129-2.305 2.915-4.27 3.074-5.379c0.288-2.017-7.844-7.46-9.861-9.094-2.017-1.633-3.203-0.256-5.379 0.384-2.403 0.707-9.99 3.458-9.99 3.458-2.881 1.599-3.587 1.921-6.147 9.993-0.882 2.784-5.124 33.557-5.893 36.374-0.769 2.816-3.587 14.345-3.074 19.211s3.587 8.965 4.355 11.271c0.769 2.305 0.51 6.914 1.024 8.196 0.513 1.281 6.147 1.793 9.99 1.024s19.468 4.098 27.92 3.586c6.625-0.402 25.835-5.012 33.844-6.393 2.211-0.38 3.586 0.758 3.586 0.758l-0.032-37.398C90.619 54.656 85.5 52.4 82.423 52.607zM24.148 60.803c-0.256 3.585 1.537 11.783 1.537 11.783s-2.817-4.612-3.074-11.016c-0.257-6.402 2.05-11.782 2.05-11.782s0 2.305 0.769 3.33C26.199 54.142 24.405 57.217 24.148 60.803zM57.833 80.908c-8.069 0.257-13.32-6.275-13.32-6.275s8.839 3.715 13.961 2.946S70 74.89 70 74.89 65.901 80.651 57.833 80.908z" fill="#000000" data-fill-palette-color="accent"></path></svg></g></svg></g></svg></g><defs></defs></svg><rect width="395.52" height="91.90929135426734" fill="none" stroke="none" visibility="hidden"></rect></g></svg></g></svg>